<?xml version="1.0" encoding="utf-8"?>
<!-- Generated by IcoMoon.io -->
<!DOCTYPE svg PUBLIC "-//W3C//DTD SVG 1.1//EN" "http://www.w3.org/Graphics/SVG/1.1/DTD/svg11.dtd">
<svg version="1.1" xmlns="http://www.w3.org/2000/svg" xmlns:xlink="http://www.w3.org/1999/xlink" width="1003" height="1024" viewBox="0 0 1003 1024"><g id="icomoon-ignore">
</g>
<path d="M236.826 1024c-18.204-11.365-37.054-21.819-54.482-34.262-46.396-33.128-83.982-74.512-114.146-123.027-29.918-48.117-49.534-100.068-58.882-155.581-5.094-30.248-6.181-61.169-9.119-91.781-0.437-4.552 1.38-6.652 6.011-6.318 1.897 0.137 3.815 0.009 5.722 0.009 224.906 0 449.815-0.002 674.723 0 12.025 0 12.876 0.109 11.466 11.819-2.662 22.121-6.386 44.116-9.728 66.156-0.392 2.585-1.14 5.116-1.967 8.744 11.108 0 21.133-0.002 31.161 0 16.631 0.002 33.263 0.159 49.887-0.032 22.168-0.255 36.18-14.258 36.332-36.454 0.18-26.714 0.045-53.432 0.009-80.148-0.004-2.13-0.315-4.258-0.559-7.302-26.047 0-51.777 0-77.964 0 0-148.601 0-296.242 0-444.579 92.396 0 184.603 0 277.895 0-18.48 147.913-36.936 295.624-55.524 444.39-25.567 0-50.997 0-77.349 0 0 5.641 0 10.203 0 14.766-0.004 24.262 0.212 48.529-0.060 72.788-0.476 42.549-19.509 73.839-57.613 93.157-14.391 7.297-29.853 9.856-45.903 9.807-35.713-0.114-71.425 0.060-107.136-0.141-5.227-0.028-8.472 1.599-11.373 5.992-32.967 49.926-76.333 88.446-129.433 115.738-14.213 7.308-29.763 11.978-44.489 18.347-3.566 1.541-6.993 4.528-9.241 7.726-3.42 4.861-5.24 10.844-8.654 15.707-8.15 11.609-9.121 24.455-8.714 38.055 0.564 18.793 0.146 37.614 0.148 56.422-70.339 0.002-140.678 0.002-211.017 0.002z"></path>
<path d="M686.666 0c0.21 2.972 0.602 5.945 0.602 8.92 0.032 191.879 0.028 383.758 0.030 575.636 0 2.709 0 5.42 0 8.875-228.965 0-457.455 0-687.217 0 0-7.132 0-14.382 0-21.63 0.002-10.63 0.186-21.264-0.075-31.887-0.12-4.912 1.571-7.115 6.566-6.714 2.437 0.197 4.903 0.021 7.357 0.021 195.694 0 391.389 0.002 587.083 0.004 12.306 0 12.301 0 12.301-12.383 0-169.8 0-339.603-0.013-509.406 0-3.81-0.159-7.621-0.244-11.433 24.536-0.002 49.073-0.002 73.609-0.002z"></path>
<path d="M1003.058 56.104c0 18.426 0 36.021 0 54.347-92.43 0-184.62 0-277.528 0 0-17.895 0-35.918 0-54.347 92.514 0 184.526 0 277.528 0z"></path>
</svg>
